<?xml version="1.0" encoding="utf-8"?>
<!-- Generator: Adobe Illustrator 24.2.0, SVG Export Plug-In . SVG Version: 6.00 Build 0)  -->
<svg version="1.1" id="Layer_1" xmlns="http://www.w3.org/2000/svg" xmlns:xlink="http://www.w3.org/1999/xlink" x="0px" y="0px"
	 viewBox="0 0 332 331.6" enable-background="new 0 0 332 331.6" xml:space="preserve">
<g>
	<path fill="none" d="M169.2,257.5c1.5-1.2,2.9-2.4,4.5-3.8C172.8,253.6,171,255.1,169.2,257.5z"/>
	<path fill="none" d="M176.6,253.6c-1,1-2,2.1-3.1,3.3c2.4-0.4,4.6-0.8,6.8-1.1c0-0.1,0-0.2-0.1-0.2
		C179,254.9,177.8,254.3,176.6,253.6z"/>
	<path d="M315.2,171.9c-2.3-1.1-4.5-2.5-6.3-4.1c0.9-0.6,1.8-1.2,2.8-1.7c0-0.2,0-0.3-0.1-0.5c-0.9-0.3-1.8-0.8-2.7-0.8
		c-3-0.1-5.9,0-8.9,0c-0.4,0-0.9,0.1-1.3,0.2c-1.3,0.2-1.8,0.7-1.8,1.6c0.1,1.1,0.8,1.5,1.7,1.5c2.2,0.1,4.4,0.1,6.6,0.2
		c0.2,0,0.4,0,0.6,0c0,0.1,0,0.2,0.1,0.2c-0.7,0.3-1.4,0.7-2.2,1c1,1.1,2.1,2.2,3.3,3.4c-0.6,0.2-1.2,0.4-1.8,0.5
		c-8.6,1.5-17.3,2.8-25.9,4.4c-7.3,1.4-14.6,3-21.8,4.7c-7.2,1.7-14.2,4-21.2,6.5c-0.3,0.1-0.7,0.2-0.8,0.1
		c-0.7-0.7-1.4-1.4-1.4-2.5c1.4-0.1,2-0.6,1.8-1.6c-0.1-0.5-0.4-1-0.8-1.2c-0.9-0.6-1.9-1-2.9-1.5c-0.3-0.1-0.7-0.3-0.8-0.5
		c-0.5-0.8-1-1.6-1.5-2.5c1.4-0.8,2.8-1.7,4.2-2.5c5.6-3.2,11.2-6.5,16.9-9.5c9.4-4.9,19.2-8.9,29.1-12.6c3-1.1,6.2-1.8,8.5-4.3
		c0,0,0.1,0,0.2,0c1.7,1.2,5.4,0.8,7.1-0.6c0.7-0.6,1.5-1.1,2.2-1.7c0.2-0.2,0.5-0.7,0.3-0.9c-0.1-0.3-0.6-0.4-0.9-0.5
		c-0.2,0-0.5,0.2-0.8,0.3c-1,0.2-2.1,0.4-2.9,0.6c1.2-3.6,2.4-7.1,3.5-10.7c0.8-2.8,0.7-5.7,0.1-8.5c0-0.2-0.3-0.3-0.4-0.5
		c-0.1,0.1-0.3,0.2-0.4,0.4c-0.3,1.2-0.5,2.4-0.9,3.6c-1.5,4.7-2.8,9.6-5,14c-0.4,0.8-0.7,1.7-1.6,2.2c-0.2,0.1-0.4,0.4-0.4,0.7
		c0,0.7-0.5,0.8-1.1,1c-7.6,1.7-14.9,4.1-22.1,7.1c-6.2,2.7-12.5,5.4-18.5,8.5c-6.6,3.4-13,7.3-19.4,11c-0.5,0.3-0.8,0.3-1.3-0.1
		c-0.9-0.7-1.8-1.4-2.8-2c-0.9-0.5-1.8-0.2-2.2,0.5c-0.4,0.7-0.1,1.4,0.9,2c0.7,0.5,1.4,1,2.1,1.6c-2.6,1.6-4.9,3.1-7.3,4.7
		c-5.3,3.5-10.7,7-15.4,11.3c-0.5,0.5-1,1.1-1.4,1.7c-0.2,0.3-0.3,1-0.1,1.2c0.3,0.3,0.9,0.4,1.3,0.2c0.9-0.3,1.7-0.8,2.5-1.3
		c7.4-4.8,14.8-9.7,22.2-14.5c1.3-0.9,1.4-0.8,2.5,0.4c-0.2,0.1-0.4,0.1-0.5,0.2c-0.4,0.4-1,1-0.9,1.4c0.1,0.5,0.6,1,1.1,1.4
		c0.4,0.2,0.9,0.2,1.4,0.3c0.8,0.1,1.5,0.2,2.3,0.4c-0.5,1.7-0.5,1.7,0.8,4.7c-0.4,0.2-0.7,0.3-1.1,0.5c-5.3,2.4-10.6,4.7-15.8,7.3
		c-2.4,1.2-4.5,2.8-6.6,4.4c-0.3,0.2-0.4,0.8-0.5,1.3c0.5,0.1,1,0.4,1.4,0.3c1.2-0.3,2.4-0.8,3.5-1.3c5.3-2.3,10.5-4.6,15.7-6.9
		c0.7-0.3,1.5-0.6,2.3-0.8c0.4,1.3,1.3,1.4,2.4,1.6c1,0.2,2,0.4,2.9,0.8c1.5,0.7,3,1.5,4.7,2.4c0.1-0.8,0.4-1.5,0.2-2.1
		c-0.7-2.1-2.5-3.1-4.5-4.4c0.7-0.4,1.1-0.8,1.6-1c10.8-3.7,21.8-6.6,33-8.8c12.1-2.3,24.2-4.3,36.3-6.4c1.6-0.3,2,0,2.7,1.3
		c-0.3-0.2-0.6-0.4-0.9-0.5c-0.8-0.3-1.6-0.3-2.1,0.4c-0.6,0.7-0.5,1.5,0.1,2.3c0.3,0.4,0.7,0.8,1.1,1.2c0.9,0.9,1.9,1.8,2.9,2.7
		c-2,0.7-2.4,1.9-1.2,3.5c0.4,0.6,1,1.1,1.5,1.7c-1.3,0.8-1.5,1.6-0.5,3c1.9,2.5,4,5,5.9,7.6c0.4,0.5,0.6,1.3,0.9,1.9
		c0.2,0.5-0.4,1.6,0.5,1.5c0.9-0.1,0.5-1.1,0.4-1.7c-0.3-2,0.1-4.1-1.1-6c0.6,0.6,1.1,0.5,1.3-0.2c0.2-0.6,0.3-1.4,0.1-2
		c-0.3-0.8-0.8-1.6-1.3-2.3c-0.5-0.7-1.1-1.4-1.6-2.2c1.2,0.1,1.6-0.3,1.5-1.4c-0.2-1.6-0.9-2.8-1.9-4c-0.6-0.7-1.2-1.4-1.8-2.1
		c0.9,0.6,1.8,1.3,2.7,1.9c1.1,0.8,1.9,0.8,2.4,0.2c0.5-0.6,0.2-1.3-0.8-2.2c-1.7-1.5-3.4-2.9-5.1-4.4c-0.2-0.2-0.3-0.4-0.5-0.6
		c0.3,0,0.4,0,0.5,0c0.3,0.1,0.6,0.2,0.9,0.3c3.6,1,7.1,1.2,10.5,0.1v-5.8c-2.8,0.3-5.7,0.5-8.5,0.8C316,172,315.6,172,315.2,171.9z
		"/>
	<path d="M310.8,36c-18.2,5.1-33.1,15.1-43.9,30.9c-0.2,0.3-0.3,0.6-0.6,0.7c-1.3,0.7-2.7,1.4-4.1,2.2c0.1-0.4,0.1-0.8,0.3-1.1
		c0.4-0.8,1-1.7,1.4-2.5c0.8-1.4,1.7-2.7,2.4-4.2c0.4-0.8,0.4-1.8-0.4-2.4c-0.8-0.7-1.7-0.7-2.5-0.1c-0.8,0.6-1.6,1.4-2.3,2.2
		c-0.7,0.8-1.2,1.7-1.8,2.6c-0.2-0.2-0.3-0.3-0.4-0.5c-2-2.8-4.4-5.2-7.1-7.3c-9.1-7.1-19.6-11.3-30.3-15.2c-0.3-0.1-0.8,0.1-1,0.3
		c-0.8,0.7-1.4,1.6-2.1,2.3c-0.2,0.2-0.6,0.2-0.9,0.3c0-0.1-0.1-0.2-0.1-0.3c0.2-0.2,0.4-0.5,0.6-0.7c0.7-0.8,1.4-1.6,2-2.5
		c0.2-0.4,0.2-1.1,0-1.5c-0.2-0.3-1-0.6-1.4-0.5c-0.6,0.1-1.2,0.5-1.6,0.9c-0.9,0.8-1.6,1.7-2.4,2.6c-1.2-0.6-2.2-1.1-3.4-1.7
		c0.2-0.7,0.4-1.3,0.6-2c0.3-1-0.2-1.9-1.1-1.6c-0.3,0.1-0.6,0.6-0.9,0.9c-0.6,0.6-1.2,1.7-1.8,1.7c-1.7-0.1-3.3-0.6-5.1-1
		c0.3-0.4,0.6-0.6,0.8-0.9c0-0.1,0-0.2-0.1-0.3c-0.6,0.1-1.4-0.1-1.7,0.2c-0.7,0.8-1.4,0.7-2.2,0.6c-2.2-0.3-4.5-0.5-6.7-0.8
		c-0.9-0.1-1.8-0.2-2.6-0.1c-1,0.1-1.3,0.7-1,1.7c0.3,0.9,1,1.4,1.9,1.5c2.5,0.4,5,0.8,7.6,1.2c2.5,0.4,5,0.8,7.7,1.2
		c-0.2,0.6-0.4,1-0.5,1.4c-0.1,0.6-0.3,1.2-0.2,1.8c0.1,0.5,0.5,1.2,1,1.3c0.4,0.1,1.1-0.3,1.4-0.6c0.6-0.7,0.9-1.7,1.4-2.5
		c0.1-0.2,0.5-0.5,0.7-0.5c0.8,0.1,1.7,0.3,2.5,0.5c-0.1,0.2-0.2,0.4-0.2,0.5c-0.5,0.9-1,1.8-1.4,2.7c-0.2,0.6-0.1,1.4,0.6,1.8
		c0.8,0.3,1.2-0.2,1.6-0.7c0.9-1.1,1.7-2.1,2.6-3.2c0.2-0.2,0.5-0.3,0.8-0.5c0.1,0.1,0.1,0.2,0.2,0.3c-0.4,0.5-0.8,1-1.3,1.5
		c0.5,0.2,0.9,0.3,1.3,0.5c6.3,2.1,12.5,4.6,18.6,7.5c7,3.4,13.4,7.6,18.8,13.3c1.2,1.3,2.6,2.6,2.4,4.6c0,0.1,0,0.3,0.1,0.4
		c0.4,1.2,1.3,1.7,2.5,1.5c0.3,0,0.9,0.1,1,0.4c0.3,0.6,0.3,1.2,0.5,1.8c0.2,0.5,0.3,1.2,0.7,1.4c0.7,0.5,1.5,0.1,1.7-0.6
		c0.3-0.9,0.2-1.9,0.4-3.1c0,0,0.3-0.1,0.7-0.2c-0.1,0.2-0.1,0.4-0.1,0.5c-0.2,1.3,0.1,2.1,1,2.5c1,0.4,1.9,0.1,2.5-1.1
		c1.1-2,2.8-3.6,3.2-5.9c0-0.2,0.2-0.3,0.3-0.4c7.7-10.5,17.5-18.5,29.3-24c5.2-2.4,10.6-4.1,16.2-5.4c0.5-0.1,1-0.2,1.5-0.3
		c-0.9-1.8-1.9-3.5-2.9-5.2C314,35.2,312.4,35.6,310.8,36z"/>
	<path d="M38.9,63.3c1.7,1.8,2.7,4,3.7,6.2c0.3,0.8,0.8,1.7,1.9,1.5c0.7-0.1,1.4-1.2,1.4-2.3c-0.1-1-0.3-2-0.6-2.9
		c-1-2.9-2.8-5.3-4.8-7.5c-6.6-7-14.3-12.7-22.4-17.8c-1.2-0.8-2.5-1.5-3.7-2.3c-0.5,1-1,1.9-1.5,2.9c6.4,4.4,12.5,9.3,18.3,14.4
		C33.9,57.9,36.4,60.6,38.9,63.3z"/>
	<path d="M14.6,37.7c3.6,1.8,7.2,3.4,10.6,5.5c8.9,5.3,16.6,12.2,23.5,19.9c2.7,3,5.5,6,8.2,9c0.8,0.8,1.7,1.5,2.7,2.5
		c-1.5,0-2.7,0-3.9,0c-1.8,0-3.4,0.7-4.7,1.9c-0.6,0.6-0.4,1.6,0.4,1.8c1.1,0.2,2.3,0.5,3.5,0.6c3.8,0.1,7.6,0.2,11.4,0.3
		c1.1,0,1.8-0.8,1.7-1.9c-0.1-0.9-0.6-1.5-1.4-1.8c-0.7-0.3-1.4-0.4-2.1-0.7c0-0.3,0.1-0.6,0-0.9c-0.3-1.3-0.3-2.7-1.7-3.7
		c-0.9-0.6-1.5-1.7-2.4-2.6c2.3,0.1,4.6,1.3,6,2.8c0.4,0.4,1.2,0.8,1.7,0.6c0.6-0.2,1.1-0.9,1.3-1.5c0.2-0.6-0.1-1.3-0.1-1.9
		c1-0.5,1.9-1.1,3-1.4c1.2-0.4,2-1,1.3-2.6c1.4,0.7,2.5,1.4,3.7,1.9c1.5,0.7,2.7,0.5,3.3-0.5c0.6-0.9,0.3-2.1-1-3.1
		c-2.3-1.7-4.7-3.2-7.2-4.7c-0.6-0.4-1.5-0.5-2.3-0.5c-0.9,0-1.6,0.5-1.9,1.4c-0.3,0.9-0.1,1.6,0.5,2.3c0.2,0.2,0.5,0.3,0.7,0.4
		c-0.7,0.6-1.4,0.9-1.6,1.4c-0.3,0.5-0.2,1.3-0.3,1.9c-1.9,0.1-3.9,0-5.6-1.2c-0.3-0.2-0.7-0.3-1-0.4c-1-0.3-1.9-0.1-2.5,0.7
		c0.2,0.7,0.5,1.4,0.7,2c-0.1,0-0.2,0.1-0.3,0.1c-0.3-0.4-0.7-0.8-1-1.2C50.3,55.1,42,47,32.2,40.4c-4.6-3.1-9.6-5.5-14.8-7.4
		C16.4,34.6,15.5,36.1,14.6,37.7z"/>
	<path d="M14.8,186.6c7.4,0.6,14.8,1.2,22.2,2.1c7.6,0.9,15.1,2.1,22.6,3.5c12.8,2.4,25.5,5.4,37.9,9.6c2.3,0.8,4.6,1.6,6.8,2.4
		c1,0.4,1.1,0.8,0.5,1.7c-0.7,1-0.3,2.3,0.9,2.6c1.3,0.4,2.8,0.3,3.8-0.6c0.9-0.8,1.6-0.6,2.5-0.2c0.2,0.1,0.4,0.2,0.6,0.2
		c2.2,0.8,4.5,1.3,6.9,1.2c0.9-0.1,1.7-0.3,1.8-1.3c0.1-1-0.6-1.4-1.4-1.7c-0.4-0.1-0.7-0.2-1.1-0.3c-2.1-0.7-4.1-1.5-6.1-2.2
		c0.1-0.9,0.4-1.6,0.1-2.1c-0.6-1.4,0.4-2.1,1-3.2c4.6,1.7,9.1,3.4,13.7,5.1c0.5,0.2,1,0.5,1.5,0.4c0.5-0.1,1.2-0.3,1.4-0.7
		c0.2-0.3-0.2-1-0.5-1.5c-0.2-0.3-0.5-0.4-0.8-0.6c-2.3-1.5-4.9-2.4-7.1-4.1c-1.6-1.2-3.6-1.8-5.2-2.5c-0.1-0.7-0.1-1.3-0.1-1.8
		c-0.5,0.1-1.2,0-1.4,0.2c-0.6,0.8-1.3,0.7-2,0.4c-0.3-0.1-0.6-0.2-1-0.3c-7.8-2.5-15.8-4.8-23.9-6.1c-1.5-0.2-3-0.3-4.6-0.4
		c0,0.1-0.1,0.2-0.1,0.3c0.5,0.3,1,0.8,1.6,1c6.5,2.3,13.1,4.6,19.6,7c2.1,0.7,4,1.7,6.4,2.7c-0.7,0.5-1.2,0.9-1.7,1.3
		c-0.5,0.4-1.2,0.8-1.4,1.4c-0.3,0.7-0.5,0.6-1,0.4c-5.1-1.8-10.2-3.7-15.4-5.3c-8.7-2.7-17.6-4.8-26.6-6.5
		c-5.3-1-10.6-2.1-15.9-2.9c-4.8-0.7-9.7-1.2-14.5-1.7c-4.3-0.4-8.6-0.7-12.8-1c-2.1-0.1-4.2-0.2-6.2-0.2c-2.9,0-5.8-0.1-8.7-0.1
		v3.2C9.7,186.3,12.3,186.4,14.8,186.6z"/>
	<path d="M324.9,217.6c-4.7-3.9-10.3-6.2-16.1-8c-11.6-3.5-23.5-5.1-35.5-5.4c-13-0.4-25.9,0.1-38.8,1.8c-2.7,0.4-5.3,0.8-8,1.3
		c-0.5,0.1-1.1,0.6-1.2,1c-0.1,0.8,0.7,0.9,1.3,0.9c2.1,0.1,4.2,0.1,6.2,0.2c1.3,0,2.6,0.1,3.9,0.2c0.3-0.1,0.6-0.5,1-0.5
		c1.6-0.2,3.2-0.3,4.8-0.4c4.9-0.2,9.8-0.4,14.7-0.6c13.9-0.4,27.8,0,41.5,2.8c8.9,1.8,17.5,4.6,25.3,9.4c0.3,0.2,0.5,0.3,0.7,0.5
		V217.6z"/>
	<path d="M303.6,152.1c-0.4,0-0.9,0.3-1.3,0.4c0.2,0.4,0.4,0.9,0.7,1.1c0.8,0.5,1.7,1,2.6,1.2c3,0.8,6.1,0.9,9.2,0.3
		c0.9-0.2,1.7-0.4,2.5-0.6c-2.2,1-4.4,1.7-6.8,1.6c-2.7,0-5.4-0.1-8.1-0.3c-1.5-0.1-3-0.6-4.5-0.9c-1.3-0.2-2,0.6-1.6,1.9
		c0.4,1,1,1.7,2,2.1c0.8,0.3,0.6,0.9,0.5,1.3c-0.1,0.3-0.4,0.5-0.7,0.7c-0.3,0.2-0.7,0.2-0.9,0.4c-0.6,0.3-1,0.9-0.8,1.6
		c0.1,0.7,0.6,1.1,1.4,1.2c0.5,0.1,1.1,0.1,1.6,0.1c2.9-0.3,5.8-0.6,8.6-0.9c0.8-0.1,1.6-0.3,2.2-0.6c1.3-0.7,1.2-0.8,0.2-1.8
		c0,0,0-0.1,0-0.2c4.9-0.1,9.2-1.7,13.1-4.5c0.5-0.3,0.9-0.8,1.4-1.2v-8.2c-2.8,1.7-5.8,3-8.9,4C312,152.1,307.8,152.5,303.6,152.1z
		"/>
	<path d="M130.1,315.7c0.5-2.1,1-4.3,1.5-6.4c0,4.5-0.8,8.9-1.7,13.2c-0.1,0.7-0.1,1.4,0.7,1.7c0.8,0.3,1.3-0.1,1.6-0.7
		c0.6-1.1,1.2-2.3,1.8-3.4c2.3-5,2.4-10.3,1.9-15.6c-0.1-0.9-0.4-1.8-1.3-2.3c-0.9-0.5-1.7,0-2.4,0.7c-0.1-2.6-0.2-5.1-0.3-7.5
		c-0.1,0-0.2,0-0.3,0c-0.2,0.7-0.3,1.5-0.5,2.2c-0.8,3.3-1.7,6.5-2.5,9.8c-1,4.4-1.8,8.9-2.7,13.3c-0.3,1.6-0.5,3.2-0.8,4.9h1.4
		C128.2,322.4,129.2,319.1,130.1,315.7z"/>
	<path d="M302,305.4c-0.8-5.5-2-11-4.1-16.2c-0.7-1.8-1.6-3.6-2.5-5.4c-0.2-0.3-0.7-0.8-1-0.7c-0.4,0.1-0.8,0.5-0.9,0.9
		c-0.2,0.5-0.2,1.2-0.1,1.7c0.5,1.9,1,3.9,1.6,5.8c1.9,6.1,3.2,12.4,3.8,18.8c0.1,1.3,0.2,2.6,0.4,3.9c1.2-0.8,2.3-1.7,3.4-2.6
		C302.5,309.5,302.3,307.4,302,305.4z"/>
	<path d="M227.4,304.2c-0.9-4.9-2-9.7-4.2-14.2c-0.2-0.5-0.7-0.9-1.1-1.3c0,0.5-0.2,1.1-0.1,1.6c1.4,7.4,3,14.8,3.4,22.3
		c0.2,4.3,0.4,8.6,0.6,12.8h3.5C229.1,318.4,228.7,311.2,227.4,304.2z"/>
	<path d="M137.5,324.8c1.9-3.4,3.1-7.1,3.9-10.9c0.5-2.2,0.8-4.4,0.2-6.6c-0.2-0.8-0.6-1.6-1.6-1.6c-0.9,0-1.4,0.7-1.5,1.5
		c-0.2,1.1-0.3,2.2-0.5,3.2c-0.9,3.4-1.9,6.8-2.8,10.2c-0.4,1.6-1.1,3.1-1,4.8h3C137.2,325.3,137.4,325.1,137.5,324.8z"/>
	<path d="M127.2,301.6c-0.4,0.6-0.6,0.9-0.7,1.2c-0.4,0.9-0.7,1.8-1.1,2.7c-2.3,5.3-4.7,10.7-7.1,16c-0.6,1.4-1.4,2.7-2.1,4.1h3.3
		c1.1-2,2.2-4,3.1-6.1c2-4.5,4.1-8.9,4.9-13.8C127.7,304.3,127.8,303.1,127.2,301.6z"/>
	<path d="M236.2,319.8c-0.7-3.7-1.4-7.4-3.2-10.8c-0.3-0.5-0.5-1.3-1.3-1c-0.8,0.3-0.4,1-0.2,1.6c0,0.2,0.1,0.3,0.2,0.5
		c1.6,5,2.3,10.2,2.8,15.5h2.4C236.7,323.6,236.5,321.7,236.2,319.8z"/>
	<path d="M238.6,236.4c0.2-0.1,0.7,0,1,0.1c11.8,7.1,23.3,14.6,33.6,23.9c0.7,0.6,1.5,1.2,2.3,1.8c0.1,0,0.2-0.1,0.3-0.1
		c0-1,0-2,0-3c0-0.2-0.2-0.5-0.3-0.7c-1.2-1.3-2.3-2.7-3.6-3.9c-7.8-7.3-16.7-13.2-26-18.4c-1.5-0.9-3.1-1.7-4.5-2.6
		c1.3-4,0.8-7.8,0-11.7c1.8,0.4,3.6,0.9,5.3,1.3c0.7,0.2,1.5,0.2,2.1-0.5c-0.9-1.4-1.7-2.8-2.6-4.2c-0.1-0.2-0.4-0.4-0.6-0.5
		c-2.9-1.4-5.8-2.9-8.7-4.2c-0.6-0.3-1.4-0.2-2.2-0.3c-0.1,0-0.4,0.3-0.4,0.5c-0.2,1.6,0.1,3.1,0.6,4.6c0.7,2.1,1.5,4.3,1,6.6
		c-0.4,1.6-0.9,3.2-1.2,4.7c-3.2-1-6.6-2.1-10-3.2c-0.1,0.2-0.2,0.3-0.2,0.5c3,1.9,6,3.9,9.2,6c-2,1.8-3.9,3.6-5.8,5.4
		c-4.2-2.6-8.2-5.4-13.5-4c4.2,0.9,7.6,3.3,11,6.1c-0.6,0.5-1.1,1-1.7,1.4c-0.9-0.5-1.8-1-2.7-1.5c-0.1,0.1-0.1,0.2-0.2,0.3
		c0.5,0.6,1,1.3,1.6,2c-0.3,0.2-0.6,0.4-0.9,0.6c-2.6,1.4-5.2,2.8-7.9,4.1c-7.8,3.9-16,6.2-24.9,5.7c-4.1-0.2-7.9-1.6-11.7-2.7
		c-0.8-0.2-1.1-0.7-1-1.6c0-0.5,0-1.2-0.3-1.6c-1.2-1.7-1.4-3.6-1.3-5.6c0-1,0-2,0-3c-0.9,0.1-1.5,0.5-1.7,1.3
		c-0.2,0.7-0.2,1.5-0.6,2c-1.2,1.4-1.5,3.1-1.5,4.7c0,1.9-1,2.5-2.4,3.2c-4.1,2.1-8.4,3.6-13.1,3.8c-4.9,0.2-9.8,0.2-14.6,0.1
		c-2,0-4.1-0.7-6.1-1c0-0.1,0-0.2,0-0.3c0.2-0.1,0.3-0.3,0.5-0.4c3.1-2.6,6.2-5.2,9.8-7.1c0.5-0.3,0.8-1,1.3-1.6
		c-0.6-0.4-1.3-0.8-1.9-1.1c-0.2-0.1-0.6,0-0.8,0.1c-1.4,0.6-2.9,1-4.1,1.8c-2.9,2.1-5.7,4.4-8.5,6.5c-0.3,0.2-0.8,0.5-1,0.4
		c-1.9-0.7-3.7-1.5-5.6-2.3c0-0.1,0-0.2-0.1-0.3c0.1-0.1,0.3-0.1,0.4-0.2c2.5-2.1,5.1-3.9,8.3-4.7c0.8-0.2,1.6-0.6,1.4-1.6
		c-0.2-1-1.1-1.2-1.9-1c-1.4,0.3-3,0.4-4.2,1.1c-2.1,1.1-4.1,2.6-6.1,4c-1.4,1-1.6,1-2.9-0.5c2.5-1.3,5-2.6,7.4-3.9
		c2.5-1.3,5.1-2.1,7.9-2.3c0.3,0,0.7,0,0.9-0.2c0.5-0.4,1.1-0.9,1.2-1.4c0.1-0.5-0.3-1.2-0.7-1.5c-0.5-0.4-1.3-0.7-2-0.8
		c-1.2-0.1-2.5-0.1-3.7,0.1c-3.4,0.5-6.4,2-9.4,3.5c-1.8,0.9-3.6,1.9-5.5,2.9c-2.4-3.1-3.9-6.5-5.2-10.3c1,0,1.7,0,2.4,0
		c2.7-0.2,5.4-0.4,8.1-0.6c0.8-0.1,1.6-0.4,1.6-1.3c0-0.9-0.8-1.2-1.6-1.3c-1.6-0.2-3.2-0.4-4.8-0.4c-2.2-0.1-4.3,0-6.5,0
		c-0.1-0.4-0.1-0.6-0.1-0.7c0.3-3.6,0.6-7.2,1-10.8c0.1-0.8-0.2-1-0.8-1.2c-0.7-0.2-1.6-0.4-2.2-0.8c-0.5-0.4-0.9-0.4-1.4-0.1
		c-3.8,1.7-7.6,3.4-11.4,5c-0.2,0.1-0.3,0.2-0.5,0.3c0.3,0.7,0.6,1.4,0.9,2c1.3,2.8,1.3,2.8,4.4,2.8c1.2,0,2.4-0.2,3.6-0.3
		c-0.1,0.9-0.2,1.8-0.1,2.7c0,0.9-0.4,1.1-1.2,1.1c-1.1,0-2.2,0.1-3.3,0.3c-3.8,0.6-7.6,1.3-11.4,1.9c-6.5,1.1-12.9,2.1-19.4,3.2
		c-5.4,1-10.8,2.1-16.2,3.2c-1.8,0.4-3.7,0.7-5.5,1c0,0.2,0,0.3,0,0.5c1.3,0.2,2.5,0.6,3.8,0.5c4.1-0.4,8.2-1.1,12.3-1.6
		c4.3-0.5,8.7-0.9,13-1.4c4.5-0.5,9-1.1,13.5-1.8c4.6-0.6,9.1-1.4,13.6-2.1c0.7-0.1,0.8,0.2,1,0.8c0.2,0.9,0.5,2,1.1,2.5
		c0.8,0.8,1.3,1.6,1.8,2.5c0.4,0.8,0.9,1.6,1.4,2.3c1.2,1.5,2.5,3,3.9,4.5c-0.1,0.1-0.4,0.3-0.6,0.4c-8.2,5.3-15.4,11.9-22.3,18.8
		c-8.5,8.6-16.7,17.5-25,26.3c-2,2.2-4.3,4.2-5.7,6.9c-0.5,0.9-0.5,1.5,0.3,2.2c0.2-0.2,0.5-0.3,0.6-0.5
		c7.4-6.8,14.9-13.6,22.2-20.5c7.1-6.7,13.8-14,21.3-20.3c3.9-3.2,8.1-6.2,12.1-9.2c0.3-0.2,0.8-0.3,1-0.2c0.7,0.5,1.4,1.1,2,1.6
		c-1.6,1.8-3,3.5-4.6,5.2c1.9,1.1,1.9,1.1,3.3,0c1.2-0.9,2.4-1.9,3.6-2.9c0.2-0.2,0.7-0.4,0.9-0.3c2,0.9,4,2,6.1,3
		c-0.2,0.3-0.5,0.5-0.7,0.8c-2.3,3-4.8,5.9-7,9.1c-3,4.3-5.3,8.9-6.7,13.9c-0.1,0.4-0.2,0.8-0.2,1.3c0.1,0,0.2,0.1,0.3,0.1
		c1.5-2,3.2-3.8,4.6-5.9c4.1-5.9,8-12,13-17.2c0.9-0.9,1.5-0.8,2.2-0.4c0.2,1.7,0.2,3.3,0.6,4.9c0.3,1.6,1.5,2.2,2.7,1.9
		c1.4,1.2,2.6,2.2,3.9,3.2c0.6,0.5,1.4,0.5,1.9-0.1c0.3-0.4,0.4-1.2,0.2-1.5c-0.9-1.4-1.4-3-1.7-4.7c-0.2-1.3-1-1.9-2.3-2
		c-0.2,0-0.4-0.2-0.7-0.3c0.3-0.1,0.5-0.2,0.8-0.2c5.2,0.8,10.5,0.7,15.7,0.5c2.1-0.1,4.2-0.1,6.3,0.6c1.3,0.5,2.7,0.5,3.9-0.4
		c0.7-0.6,0.8-0.8,0.1-1.4c0,0,0-0.1,0-0.1c1.6-0.7,3.1-1.3,4.9-2.1c-1.2,1.1-2.1,2-3.1,2.9c0.1,0.1,0.1,0.2,0.2,0.2
		c0.2-0.1,0.5-0.1,0.8-0.2c-0.3,0.3-0.5,0.5-0.6,0.8c-0.1,0.5-0.2,1-0.2,1.5c0.5-0.1,1,0,1.4-0.3c0.8-0.5,1.5-1.2,2.2-1.8
		c-0.2,0.4-0.5,0.7-0.7,1.1c-0.2,0.3-0.1,0.7-0.2,1c0.4,0.1,0.8,0.2,1.1,0.1c0.6-0.2,1.2-0.6,1.8-0.9c0,0.1,0,0.2,0,0.3
		c0.7,0.1,1.5,0.3,2.2,0.2c1.5-0.2,3.1-0.7,4.6-0.8c2.6,0,5.1-0.3,7.4-1.4c1.1-0.5,2.1-0.5,3.3-0.5c5.7,0.4,11.4,0.4,17.1-1.3
		c7.2-2.2,13.9-5.5,20.4-9.3c0.3-0.2,1-0.4,1.1-0.2c2.3,2.4,5.3,4.2,7.3,7c0.2,0.3,0.4,0.5,0.7,0.7c0.1-0.1,0.2-0.2,0.3-0.3
		c-2.3-2.9-4.5-5.9-6.9-8.9c0.6-0.4,1.3-0.9,2-1.4c0.3,0.2,0.4,0.3,0.6,0.4c10.6,7.5,19.1,17,27.5,26.7c1,1.2,2.3,2.2,3.5,3.3
		c1.1-1.2,1.1-1.2,0.3-2.4c-0.9-1.3-1.8-2.6-2.8-3.9c-2.4-3.2-4.6-6.5-7.3-9.5c-5.5-6.2-11.5-11.8-18.5-16.4
		c-0.2-0.1-0.3-0.2-0.5-0.4c0.1-0.1,0.2-0.3,0.3-0.3C234.7,239.5,236.6,237.9,238.6,236.4z M169.2,257.5c1.8-2.4,3.6-3.9,4.5-3.8
		C172.1,255.1,170.7,256.3,169.2,257.5z M173.5,256.9c1.1-1.2,2.1-2.2,3.1-3.3c1.2,0.6,2.4,1.3,3.6,1.9c0,0.1,0,0.2,0.1,0.2
		C178.1,256.1,175.9,256.5,173.5,256.9z"/>
	<path d="M89,146.1c4,2.8,8.3,4.9,13.3,5.2c5.8,0.3,11-1.1,15.2-5.3c1.4-1.4,2.6-3.1,2.9-5.1c0.6-3.9,0.5-7.8-1.3-11.5
		c-2.7-5.6-7.5-8.7-13.3-10.3c-2.3-0.6-4.7-0.4-7,0.4c-2,0.7-3.9,1.5-5.8,2.2c-2.6,0.9-4.4,2.7-5.7,5c-1.7,3-2.4,6.3-2.5,9.7
		c0.2,1.2,0.1,2.5,0.6,3.6c0.7,1.8,1.7,3.4,2.7,5.1C88.3,145.5,88.6,145.9,89,146.1z"/>
	<path d="M227.1,149.5c6.5,2.8,12.9,2.5,19.2-0.7c1.7-0.9,3.8-1.7,4.8-3.1c1.9-2.7,4.1-5.5,3.6-9c0.1-4-0.7-7.6-2.8-10.8
		c-1.1-1.6-2.3-3-4.2-3.7c-2.3-0.9-4.7-1.9-7-2.8c-0.5-0.2-1.1-0.3-1.7-0.4c-7-0.9-12.3,2.4-16.6,7.5c-2.9,3.5-3.6,7.8-3.4,12.2
		c0.1,2.5,0.9,4.7,2.5,6.5C223.1,147,224.9,148.5,227.1,149.5z"/>
	<path d="M160.4,37.6c0.2,0,0.5,0.2,0.6,0.4c0.4,0.9,1.2,1.1,2,1c0.7-0.1,1.4-0.3,1.9-0.7c4.3-2.7,8.6-5.5,12.8-8.2
		c0.7-0.5,1.5-0.9,2.4-1.1c0.6-0.2,1.2-0.5,1-1.2c-0.2-0.7-0.9-1-1.6-0.7c-2.9,1.2-6.1,1.9-8.8,3.6c-0.6,0.4-1.5,0.5-2.3,0.6
		c-4.1,0.1-8.1,0-12.2,0.3c-8,0.7-15.9,2.5-23.6,4.6c-14.4,4-28.4,9-42.1,15.1c-0.3,0.1-0.5,0.2-0.8,0.3c-0.3-0.8-0.5-1.6-0.8-2.3
		c-0.4-0.8-1.1-1-1.8-0.5c-0.5,0.4-1,0.9-1.1,1.5c-0.3,0.9-0.3,1.9-0.5,2.8c-0.1,0.3-0.2,0.7-0.5,0.9c-0.9,0.6-1.8,1-2.8,1.6
		c-0.5-1-0.8-1.9-1.3-2.8c-0.6-1.1-1.5-1.6-2.3-1.3c-1,0.3-1.7,1.4-1.4,2.5c0.6,2.3,1.2,4.5,2.1,6.7c0.5,1.3,1.5,2.4,2.9,2.8
		c0.6,0.2,1.5,0.1,2.1-0.3c0.7-0.4,0.7-1.3,0.5-2c-0.1-0.5-0.3-1-0.5-1.6c0.7-0.3,1.4-0.7,2.2-1c0.3,0.6,0.5,1.2,0.9,1.7
		c0.7,0.9,1.4,1.9,2.3,2.6c1.1,0.8,2.3,0.1,2.2-1.3c0-0.6-0.3-1.3-0.5-1.9c-0.3-1-0.7-1.9-1-2.9c1.9-0.8,3.7-1.5,5.5-2.2
		c0.1,0.7,0.2,1.2,0.3,1.7c0.2,0.8,0.7,1.3,1.6,1.4c0.9,0,1.4-0.6,1.5-1.4c0.1-0.7,0.2-1.5,0.2-2.2c0-0.6,0.2-1,0.8-1.2
		c5.1-1.8,10.2-3.7,15.3-5.6c10.2-3.7,20.6-6.4,31.1-9C151.2,37.2,155.9,37.7,160.4,37.6z"/>
	<path d="M188.9,203.3c-0.8-0.6-1.7-0.9-1.5-2.2c0-0.2-0.2-0.3-0.2-0.4c-0.9,0.8-1.7,1.5-2.6,2.3c-0.2,0.2-0.2,0.6-0.1,0.8
		c0.8,1.4,1.5,2.8,2.4,4.1c2,2.9,4,5.8,3.2,9.5c-2,1.1-4,2.2-6,3.3c-1.7,1-2.2,2.5-1.3,4.3c0.4,0.7,0.9,1.2,1.8,1.2
		c0.8,0,1.5-0.4,1.6-1.2c0.3-1.5,1.6-1.6,2.7-2.1c-1.1,1.9-2.4,3.7-4.2,4.9c-2.4,1.7-4.8,3.3-7.2,4.8c-0.5,0.3-1.2,0.5-1.9,0.8
		c-0.2-2.4-0.3-4.6-0.5-6.7c-0.2-1.9-0.4-3.8-0.7-5.7c-0.1-0.4-0.7-0.8-1.2-1c-0.1-0.1-0.8,0.5-0.8,0.8c-0.2,2.2-0.4,4.4-0.4,6.6
		c0,1.9,0.2,3.8,0.4,5.8c-5.7-1.3-10.9-3.5-15.6-7.6c1,0.2,1.8,0.3,2.6,0.5c0.7,0.2,1.3,0.5,2,0.7c0.4,0.1,0.7,0.1,1.1,0.2
		c0.9,0.1,1.6-0.3,1.9-1.1c0.4-0.8,0.1-1.5-0.4-2.1c-2-2.6-5.9-3.4-9-1.8c-0.1-0.4-0.2-0.7-0.2-1.1c-0.1-3-0.1-6,0.6-9
		c0.1-0.5,0.5-0.8,0.9-1.2c0.9-1.1,2-2.1,2.6-3.3c0.5-1.1,0.5-2.5,0.8-3.8c0.4-1.8,0.9-3.6,1.3-5.3c-0.1-0.1-0.2-0.2-0.3-0.4
		c-0.7,0.4-1.4,0.6-1.9,1.1c-0.9,0.9-1.6,2-2.4,3c-0.2,0.2-0.4,0.5-0.7,0.5c-1.9,0.1-2.8,1.3-3.4,2.8c-1.6,3.8-2.3,7.8-2.4,12
		c-0.1,4.1,1.4,7.5,4.1,10.4c0.8,0.9,1.7,1.8,2.7,2.5c2.7,2.1,5.3,4.4,8.8,4.9c0.1,0,0.3,0.1,0.4,0.2c1.9,2,4.3,2.3,6.9,2.2
		c1.9-0.1,3.9-0.4,5.7-0.7c1.1-0.2,2.3-0.7,3.3-1.2c1.3-0.7,2.6-1.5,3.8-2.4c1.4-1,2.9-2.1,4.1-3.3c0.7-0.7,1-1.9,1.7-2.7
		c2.2-2.5,3.7-5.3,4-8.8c0.1-1.7,0.6-3.5,0.3-5.2C195,209.1,192.5,205.8,188.9,203.3z"/>
	<path d="M36.4,167.1c0.1-1.1-0.7-1.5-1.4-1.9c0.1-1.9-0.4-2.1-2.2-2c-3.4,0.1-6.8,0.3-10.2-0.1c-3.7-0.5-6.5-3.2-9.4-5.5
		c1.8,0.6,3.5,1.2,5.3,1.7c2.9,0.8,5.8,1.7,8.8,1.6c0.7,0,1.5-0.3,2.1-0.6c0.8-0.5,0.8-1.4,0-1.9c-0.5-0.3-1.1-0.5-1.7-0.7
		c-3.5-0.9-7.1-1.8-10.6-2.7c-4.3-1.2-7.6-3.4-10.2-6.4v9.3c3.4,4.5,7.6,8,13.1,10.1c0.2,0.1,0.5,0.2,0.5,0.4
		c0.2,1.7,1.6,1.6,2.8,1.8c1.9,0.3,3.8,0.7,5.7,1c1.2,0.2,2.5,0.5,3.7,0.7c0.5,0.1,1.1,0.1,1.6,0.3c0.6,0.2,1.1,0.4,1.4-0.3
		c0.3-0.7-0.4-0.9-0.8-1.2c-0.7-0.5-1.5-0.9-2.2-1.5c-0.5-0.4-0.8-0.9-1.1-1.4c0.9-0.6,2-1.2,3-1.8
		C35.3,166.2,35.8,166.6,36.4,167.1z"/>
	<path d="M69.4,174.3c-0.1,0.1-0.1,0.3-0.2,0.4c1,0.7,1.9,1.7,2.9,2c3,0.9,6.1,1.7,9.1,2.5c14.6,3.9,29.2,8,43.3,13.8
		c2.1,0.9,4.2,1.7,6.3,2.6c0.6,0.3,1.5,0.4,1.8-0.3c0.2-0.5,0-1.3-0.3-1.7c-1-1.5-2.4-2.6-4.1-3.3c-2.5-1.2-5-2.3-7.5-3.4
		c1.6-0.9,1.7-1.3,0.5-2.5c1.7-0.7,3.5-1.4,5.3-2.2c0.3-0.2,0.8-0.8,0.7-1c-0.1-0.4-0.7-0.8-1.1-0.9c-2.3-0.2-4.6,0.1-6.8,1
		c-1.1,0.4-1.9,1-2,2.1c-1,0.2-2,0.2-2.6,0.7c-0.5,0.4-0.8,0.4-1.3,0.2c-3-1-6-2-9.1-2.9c-7.9-2.3-15.9-3.9-23.9-5.3
		C76.8,175.3,73.1,174.8,69.4,174.3z"/>
	<path d="M297.9,51.8c0.2-0.2,0.4-0.8,0.2-1c-0.2-0.3-0.7-0.6-1.1-0.5c-0.5,0.1-0.9,0.4-1.3,0.8c-5,4.8-10,9.6-14.8,14.6
		c-3.9,4-7.9,7.8-9.8,13.3c-0.4-0.2-0.8-0.4-1.3-0.6c-0.6-0.2-1.2-0.4-1.8-0.5c-0.9-0.1-1.8,0.6-2,1.3c-0.2,1,0.5,1.4,1.3,1.8
		c1.6,0.7,3.2,1.5,4.9,2.4c-0.7,0.2-1.1,0.3-1.6,0.5c-1.5,0.4-2,1.9-0.9,3.1c0.3,0.4,0.8,0.7,1.2,0.9c3.6,1.6,7.3,2.4,11.2,2.3
		c0.5,0,1.1,0.3,1.6,0.5c0.2,0.1,0.6,0.2,0.7,0.1c0.2-0.1,0.3-0.6,0.2-0.7c-0.3-0.4-0.7-0.8-1.1-1c-2.2-0.7-4.5-1.4-6.7-2
		c-1.6-0.5-3.3-0.9-4.9-1.3c1.7-1,3.5-1,5.3-0.9c0.9,0.1,1.9,0.1,2.9,0.1c0.8,0,1.5-0.3,1.5-1.2c0.1-0.9-0.7-1.1-1.4-1.3
		c-1.3-0.4-2.6-0.7-3.8-1.1c-1.9-0.6-2-0.9-1.1-2.8c0.1-0.3,0.3-0.6,0.5-0.9c1-1.4,2-2.9,3.2-4.3c3.6-4.3,7.3-8.5,10.9-12.8
		C292.6,57.7,294.7,54.3,297.9,51.8z"/>
	<path d="M41.8,132.1c1.5-1,2.5-2.4,3.1-4c0.2-0.5,0.5-0.9,0.8-1.3c0.3-0.5,0.8-1,1-1.6c0.7-2.7,1.4-5.3,2-8c0.2-0.8,0.1-1.8,0-2.6
		c0-0.7-0.4-1.4-1.3-1.3c-0.8,0-1.1,0.6-1.2,1.3c-0.1,0.9-0.2,1.9-0.5,2.8c-0.4,1-1,1.9-1.5,2.9c-2.3,4.8-4.7,9.6-7,14.3
		c-0.3,0.6-0.6,0.9-1.4,1c-0.8,0.1-1.8,0.3-1.9,1.3c-0.1,0.6,0.3,1.3,0.5,1.9c0,0.4-0.3,0.7-0.5,1.1c-0.6,0.8-1.2,1.6-1.7,2.4
		c-0.2,0.3-0.1,0.8,0,1.1c0.5,1.2,1.1,2.4,1.7,3.6c0.1,0.1,0.2,0.2,0.3,0.3c1.7,3,3.7,5.7,7.2,6.8c0.3,0.1,0.8,0,1-0.2
		c0.5-0.5,0.3-1.1-0.1-1.6c-0.4-0.5-0.7-1.1-0.8-1.6c-0.2-0.7-0.1-1.5-0.3-2.2c-0.3-0.8-0.7-1.5-1.1-2.4c0.5,0.1,0.8,0.1,1.1,0.2
		c1.6,0.2,3.2,0.2,4.7-0.6c0.6-0.3,0.7-0.7,0.2-1c-0.7-0.5-1.5-1-2.3-1.2c-2.5-0.5-5-0.9-7.7-1.4c-0.4-1,0.8-1.6,1.3-2.4
		c0.1-0.2,1-0.1,1.4,0c1.4,0.3,2.8,0.8,4.2,0.2c0.5-0.2,1.1-0.4,1.7-0.6c0.2-0.1,0.3-0.3,0.5-0.4c-0.2-0.2-0.3-0.4-0.5-0.4
		c-0.3-0.1-0.7-0.2-1-0.3c-0.9-0.4-1.7-0.9-2.6-1.4c-0.5-0.2-1-0.4-1.5-0.6c0.7-1.3,1.3-2.4,1.9-3.6
		C41.6,132.3,41.7,132.1,41.8,132.1z"/>
	<path d="M183.7,270.2c-0.8-0.4-1.4,0.4-1.8,0.9c-1.2,1.5-2.3,3-3.4,4.6c-0.1,0.2-0.3,0.4-0.3,0.6c0,0.5-0.1,1.1,0.2,1.5
		c0.2,0.3,0.9,0.4,1.4,0.4c1.3-0.2,2.5-0.6,3.8-0.9c6.6-1.8,12.4-5.1,17.8-9.2c0.8-0.6,1.4-1.6,2.1-2.4c0.6-0.7,1.1-1.4,1.7-2.1
		c0.9,0.7,1.7,1.3,2.6,0.6c1.3-0.9,0.4-2,0.2-2.9c0.7,0.1,1.4,0.4,2.1,0.4c1.1,0,1.7-1,1.3-2c-0.4-1.1-1.2-1.7-2.4-1.9
		c-1-0.1-1.7,0.5-2,1.5c-0.2-0.3-0.4-0.5-0.6-0.6c-0.6-0.5-1.3-0.8-2.1-0.4c-0.8,0.4-0.9,1.1-0.7,1.8c0.2,0.8,0.5,1.5,0.9,2.3
		c-0.8,0.5-1.5,1.2-2.2,1.6c-1.6,0.9-3.3,1.7-5,2.6c-1.6,0.9-3.1,1.8-4.3,2.6c-0.8-0.4-1.3-0.8-1.8-0.9c-0.8-0.1-0.7,0.7-1,1.2
		c-0.3,0.7-0.8,1.3-1.2,1.9c-0.1-0.1-0.2-0.1-0.3-0.2c0.1-0.5,0.3-1,0.3-1.5c0-0.3-0.3-0.7-0.5-1c-0.1-0.1-0.6,0.1-0.7,0.3
		c-0.6,1-1.2,1.9-1.7,3c-0.4,0.9-1.2,1.3-2.2,1.5c0.1-0.4,0.3-0.7,0.4-1C184.4,271.6,184.6,270.7,183.7,270.2z"/>
	<path d="M31.8,266.8c0.3-0.2,0.4-1,0.2-1.3c-0.3-0.6-0.9-0.4-1.4-0.1c-2,1.5-4.2,2.8-6.1,4.4c-5.3,4.3-9.8,9.3-14,14.5
		c0.5,1.5,1.1,3,1.7,4.4c3.4-4.1,6.9-8.2,10.5-12.1C25.6,273.4,28.3,269.7,31.8,266.8z"/>
	<path d="M24.1,262.9c4-3.4,8.1-6.7,12.1-10.1c1.2-1,2.3-2.1,3.5-3.2c-0.1-0.1-0.2-0.3-0.3-0.4c-2,1-4.1,1.9-6,3
		c-5.3,3-10.2,6.6-14.6,10.8c-3.2,3-6.2,6.2-9.3,9.4c-0.5,0.5-0.8,1.2-1.1,1.8c-0.3,0.7-0.1,1.3,0.5,1.8c0.6,0.5,1.1,0.2,1.6-0.3
		c2.1-1.6,3.8-3.8,6.1-5.3c2.2-1.4,4-3.4,5.9-5.2c0.2-0.2,0.7-0.6,0.6-0.8C22.8,263.6,23.6,263.4,24.1,262.9z"/>
	<path d="M303.4,248.5c-1.2-0.7-2.5-0.9-3.8-0.8c-0.4,0-0.8,0.3-1.1,0.5c0.3,0.3,0.5,0.7,0.8,0.9c3,2.3,6.2,4.3,9.1,6.8
		c4,3.6,6.6,8.2,8.7,13.1c0.7,1.7,1.4,3.5,3,4.8c0.2,0.2,0.2,0.7,0.3,1.1c0.1,0.3,0.3,0.7,0.5,0.8c0.3,0,0.7-0.1,0.9-0.4
		c0.2-0.2,0.2-0.6,0.2-1c0-0.6-0.1-1.3-0.2-1.9c0,0,0.1,0,0.1,0c0-0.2,0-0.3,0-0.5c0-0.3-0.1-0.5-0.2-0.8
		C318.5,261.2,312.6,253.5,303.4,248.5z"/>
	<path d="M313.5,253.2c-0.2,0.4,0,1.3,0.4,1.7c2.6,3,4.3,6.8,7.5,9.3c0.5,0.4,1,0.7,1.6,0.3c0.5-0.3,0.6-0.7,0.5-1.4
		c-0.4-2-1.7-3.4-2.8-4.9c-0.4-0.6-1-1.1-0.4-1.9c0.1-0.2,0-0.6-0.1-0.9c-0.2-0.5-0.4-1-0.6-1.5c0.3,0.1,0.4,0.3,0.6,0.4
		c0.5,0.1,1.1,0.4,1.4,0.2c0.6-0.3,0.5-0.9,0.2-1.4c-0.3-0.5-0.5-0.9-0.9-1.6c0.9,0.3,1.9-0.1,2.2,1.1c0,0.1,0.6,0.2,0.7,0.1
		c0.2-0.1,0.4-0.5,0.4-0.7c-0.4-1-0.7-2.2-1.3-3c-1.3-1.9-3.1-3.3-5.1-4.4c-1.2-0.6-2.5-0.4-3.1,0.4c-0.6,0.8-0.3,1.8,0.9,2.8
		c1.1,0.9,2.2,1.8,3.3,2.7c-0.5,0.3-0.9,0.5-1.2,0.7c-0.6-0.3-1-0.7-1.5-0.9c-0.4-0.1-0.9-0.1-1.2,0.2c-0.2,0.1-0.1,0.8,0.1,1.1
		c0.2,0.5,0.6,1,1,1.7c-0.3-0.1-0.4-0.1-0.6-0.2C314.6,252.7,313.8,252.4,313.5,253.2z"/>
	<path d="M85.3,291.8c-0.7-0.4-1.2,0.1-1.6,0.7c-0.6,0.9-1,1.8-1.7,2.6c-3.5,4.1-5.6,8.9-7.4,13.9c-1.3,3.7-2.7,7.4-2.7,11.4
		c0.1,0.7,0.1,1.4,0.2,2.1c0.2,0.8,0.5,1.5,1.4,1.5c0.9,0,1.2-0.6,1.5-1.3c0.1-0.2,0.1-0.5,0.1-0.8c0.2-1.4,0.2-2.7,0.5-4.1
		c2.1-8.5,5.3-16.6,9.7-24.2C85.8,292.9,86,292.2,85.3,291.8z"/>
	<path d="M34,146.9C34,146.9,34,146.9,34,146.9C34,146.9,34,146.9,34,146.9C34,146.9,34,146.9,34,146.9C34,146.9,34,146.9,34,146.9
		C34,146.9,34,146.9,34,146.9z"/>
	<path d="M31.7,148.1c0,0.4,0,0.8,0.1,1.1c0.4,1.5,0.9,2.9,1.4,4.3c-1.1,0.6-1.5,1.2-1.3,2.5c0.6,3,1.8,5.8,3.8,8.1
		c0.6,0.7,1.6,1,2.4,1.5c0.5,0.3,1,0.5,1.5,0.7c0.3,0.1,0.8,0.2,1,0.1c0.2-0.2,0.5-0.7,0.4-0.9c-0.1-0.4-0.5-0.8-0.7-1.2
		c-0.1-0.2-0.3-0.4-0.3-0.7c-0.1-0.7-0.1-1.5-0.3-2.1c-1.5-3.7-3.1-7.3-4.6-11c-0.5-1.1-0.7-2.4-1.1-3.6c-0.5-0.2-1.1-0.6-1.6-0.5
		C31.6,146.6,31.6,147.4,31.7,148.1z"/>
	<path d="M292.3,121.5c-0.1-0.8-0.2-1.6-0.4-2.4c-0.1-0.3-0.7-0.3-1.1-0.5c-0.1,0.3-0.2,0.7-0.2,1c-0.1,0.6-0.1,1.2-0.2,1.8
		c-0.1,0-0.2,0-0.4,0c-2-3.4-4.2-6.5-7.1-9.1c-0.1,0.1-0.1,0.1-0.2,0.2c0.3,0.4,0.5,0.9,0.8,1.3c1.8,2.8,3.6,5.6,5.3,8.5
		c0.3,0.5,0.4,1.3,0.2,1.8c-1.6,4-0.6,8-0.1,12c0,0.2,0.1,0.4,0.2,0.5c0.3,0.3,0.7,0.8,1.1,0.8c0.4,0,0.9-0.5,1.1-0.9
		c0.3-0.7,0.3-1.5,0.4-2.2c0.1-1.3,0.2-2.6,0.2-3.9c0.2,0,0.3,0,0.5-0.1c0.4,1.7,0.8,3.4,1.2,5.2c0.1-0.7,0.2-1.4,0.1-2
		c-0.8-3.2-1.3-6.3,0.1-9.5C294.4,122.3,294,121.9,292.3,121.5z"/>
	<path d="M294.7,115.6c0.7-0.4,0.6-1,0.2-1.6c-0.9-1.4-1.7-2.8-2.7-4.1c-3.7-5-8.3-9.3-12.8-13.7c-0.6-0.5-1.4-0.8-1.8-1
		c-1.4,0-2,0.9-1.5,1.8c0.4,0.6,0.9,1.1,1.4,1.7c3,3.2,6.1,6.4,9.1,9.5c1.8,1.9,3.7,3.8,5.6,5.7c0.4,0.4,0.7,0.8,1,1.2
		C293.7,115.6,294.1,116,294.7,115.6z"/>
	<path d="M162.9,276.5c0,0.1,0,0.3,0.1,0.4c0.4-0.3,0.9-0.6,1-1c0.1-0.3-0.3-0.9-0.6-1.1c-0.3-0.3-0.8-0.3-1.2-0.4
		c-5.2-0.5-10.2-1.9-14.9-4.3c-1.6-0.8-3.4-1.5-4.6-3c-0.2-0.3-0.9-0.4-1.1-0.3c-0.3,0.2-0.7,0.7-0.7,1.1c0.1,0.6,0.3,1.3,0.8,1.7
		c0.8,0.8,1.7,1.5,2.7,2.2C150,275.5,156.2,277,162.9,276.5z"/>
	<path d="M313.2,285c-0.2-0.3-0.8-0.4-1.1-0.6c-0.1,0.4-0.5,0.9-0.4,1.2c0.3,1.1,0.6,2.1,1.1,3.1c1.3,2.6,2.3,5.2,3,7.9
		c0.6-1,1.2-2,1.7-3C316.4,290.6,314.9,287.8,313.2,285z"/>
	<path d="M30.2,179.7c-1.4-0.7-2.8-1.4-4.3-2c-1.1-0.5-2.3-0.9-3.4-1.3c-1.4-0.4-3.1,0.1-3.8-1.7c0,0-0.1,0-0.1-0.1
		c-1.6-0.4-3.2-0.8-4.8-1.1c-0.8-0.1-1.3,0.5-1.4,1.3c0,0.9,0.6,1.3,1.3,1.5c1.3,0.4,2.5,0.8,3.8,1.3c3.3,1.1,6.6,2.2,9.9,3.4
		c0.7,0.3,1.4,0.8,2.2,1c0.4,0.2,1.1,0.3,1.4,0c0.3-0.2,0.5-0.9,0.4-1.3C31.1,180.4,30.7,179.9,30.2,179.7z"/>
	<path d="M197.4,190.3c3.7-4.2,7.5-8.3,11.2-12.5c0.9-1,1.6-2.1,2.4-3.2c-0.1-0.1-0.2-0.2-0.3-0.3c-1.6,0.9-3.2,1.6-4.6,2.7
		c-3.1,2.2-5.7,5-7.9,8c-1,1.3-1.8,2.7-2.5,4.2c-0.3,0.6-0.6,1.6,0.3,2C196.6,191.6,197,190.7,197.4,190.3z"/>
	<path d="M180.3,32.5c-3,1.5-6,3.1-9,4.7c-0.6,0.3-1.3,0.8-1.7,1.4c-0.3,0.4-0.3,1.1-0.1,1.5c0.2,0.4,0.8,0.6,1.1,0.8
		c0.8-0.3,1.4-0.4,2-0.7c2.5-1.3,5.1-2.6,7.6-4.1c1.4-0.8,2.6-1.9,3.9-2.8c0.6-0.4,1.3-0.8,1.8-1.2c0.3-0.2,0.5-0.6,0.7-0.9
		c-0.4-0.2-0.9-0.6-1.2-0.5C183.8,31.2,182,31.7,180.3,32.5z"/>
	<path d="M295.1,266.6c-0.1,0-0.2,0.1-0.2,0.1c0.1,0.3,0.2,0.6,0.3,0.9c3.4,8.2,5.7,16.9,9.4,25c0.1,0.2,0.3,0.3,0.5,0.5
		c0.1-0.2,0.4-0.4,0.4-0.6c-0.1-1.2-0.2-2.5-0.5-3.7c-0.4-1.5-1-3-1.5-4.6c-0.2-0.6-0.7-1.1,0.1-1.7c0.1-0.1,0.1-0.5,0-0.8
		c-0.7-1.7-1.4-3.4-2.3-5c-1.2-2.1-2.5-4.1-3.8-6.2C296.7,269.2,295.9,267.9,295.1,266.6z"/>
	<path d="M309,276.7c-0.7-4.3-2.8-7.9-5.7-11.1c-0.4-0.4-0.9-0.6-1.6-1.1c-0.4,0.5-1,0.9-1.1,1.4c-0.1,0.5,0,1.2,0.3,1.6
		c1.5,2.7,3,5.3,4.5,8c0.3,0.6,0.6,1.4,0.7,2.1c0.1,0.9,0.6,1.3,1.4,1.3C308.5,278.9,309.3,277.9,309,276.7z"/>
	<path d="M20.8,283.2c-1.6,1.8-3.1,3.8-4.4,5.8c-0.8,1.3-1.6,2.6-2.4,3.9c0.4,0.7,0.7,1.4,1.1,2c2.6-3.3,5.3-6.6,8-9.9
		c0.3-0.4,0.5-1,0.9-1.7c-0.5-0.4-0.9-1-1.3-0.9C22.1,282.5,21.3,282.7,20.8,283.2z"/>
	<path d="M57.6,92.3c-0.1-0.5-0.7-1-1.2-1.3c-0.4-0.2-1-0.1-1.4,0.1c-1.1,0.5-2.3,1.1-3.2,1.9c-2.9,2.6-5.6,5.4-7.8,8.6
		c-0.5,0.8-0.9,1.8-1.4,2.6c0.1,0.1,0.2,0.2,0.4,0.2c0.3-0.2,0.6-0.4,0.9-0.6c2.5-2.1,5-4.3,7.5-6.4c1.6-1.4,3-3.1,5.3-3.7
		C57.2,93.5,57.7,92.7,57.6,92.3z"/>
	<path d="M85.2,305.5c-2.3,3.2-3.9,6.7-5.3,10.3c-0.6,1.6-0.7,3.2-0.4,4.8c0.1,0.7,0.4,1.6,1.3,1.5c0.9,0,1.1-0.9,1.1-1.6
		c0.2-2.7,1.1-5.2,2.3-7.7c0.7-1.3,1.3-2.7,1.9-4.1c0.6-1.5,1.4-3,1-5C86.3,304.5,85.6,304.9,85.2,305.5z"/>
	<path d="M8.4,258.1c0.5,0.1,1.1-0.4,1.5-0.7c0.9-0.7,1.6-1.7,2.5-2.3c2.4-1.5,5-2.9,7.5-4.4c0.3-0.2,0.6-0.6,0.6-0.8
		c0-0.3-0.4-0.5-0.7-0.7c-0.2-0.2-0.6-0.2-0.9-0.3c-0.5,0.1-1.1,0.3-1.6,0.4c-3.4,0.7-6.3,2.5-9,4.5c-0.3,0.2-0.5,0.5-0.7,0.8
		c-0.2,0.3-0.3,0.5-0.4,0.8v1.5c0,0,0,0.1,0.1,0.1C7.4,257.4,7.9,258,8.4,258.1z"/>
	<path d="M9.5,263.4c2.7-2.1,5.4-4.2,8-6.5c0.7-0.6,1-1.6,1.4-2.5c-1.6-0.2-2.8,0-3.8,0.8c-2.7,2-5.4,4-8,6v2.9c0,0,0,0,0,0
		C7.9,264,8.8,263.8,9.5,263.4z"/>
	<path d="M150.2,310.7c-0.1,0.3-0.2,0.6-0.2,0.9c-0.6,3-1.2,6.1-1.8,9.1c-0.2,0.8,0,1.5,0.9,1.9c0.9,0.3,1.4-0.1,1.9-0.8
		c0.1-0.1,0.1-0.2,0.2-0.4c0.7-1.9,1.4-3.8,2-5.8c0.4-1.4,0.6-2.8,0.9-3.9c0-1.3-0.6-2.3-1.5-2.4C151.5,309,150.5,309.6,150.2,310.7
		z"/>
	<path d="M289.5,152.5c-1.6,0.4-2.1,1.2-2,2.2c0.2,1,1,1.4,3.2,1.4c2.5-0.5,5.5-1,8.1-2.6c0.2-0.1,0.5-0.3,0.5-0.4
		c0.2-0.4,0.5-1,0.4-1.4c-0.1-0.4-0.7-0.7-1.1-0.9c-0.2-0.1-0.6-0.1-0.9,0C295.1,151.3,292.3,151.8,289.5,152.5z"/>
	<path d="M27.9,171.3c-1.3-0.1-1.6,0.1-2.1,1.3c-3.3-1-6.5-1.9-9.7-2.9c-0.4-0.1-0.8-0.2-1.2-0.1c-0.8,0-1.5,0.3-1.6,1.2
		c-0.1,0.9,0.6,1.2,1.3,1.4c1.3,0.4,2.5,0.8,3.8,1.1c0.7,0.2,1.5,0.3,2.3,0.2c1.1,0,2.2-0.4,3.2-0.3c1.3,0.1,2.6,0.6,3.9,1
		c1.3,0.3,2.6,0.7,3.9,1.1C30.6,173.7,27.9,173.8,27.9,171.3z"/>
	<path d="M180.4,190.3c0-1-0.8-1.5-1.6-1.1c-0.7,0.3-1.4,0.8-1.8,1.4c-1.5,2.3-2.8,4.6-4.1,6.9c-0.4,0.6-0.3,1.3,0.3,1.9
		c0.6,0.5,1.3,0.6,2,0.2c0.4-0.2,0.8-0.6,1-1c1.3-2.3,2.6-4.7,3.9-7.1C180.2,191.1,180.3,190.6,180.4,190.3z"/>
	<path d="M53.5,101.5c0.6-0.4,0.8-1.1,0.3-1.7c-0.5-0.7-1.2-0.6-1.8-0.2c-1.1,0.9-2.1,1.8-3,2.9c-2,2.5-3.3,5.5-4.3,8.5
		c-0.2,0.6-0.2,1.3-0.3,2.2c0.4-0.2,0.6-0.3,0.6-0.4c1-1.3,2.1-2.5,2.9-3.9C49.6,106.3,51,103.5,53.5,101.5z"/>
	<path d="M178.8,202.2c0.6,0.5,1.1,1.2,1.5,1.1c0.5,0,0.9-0.7,1.3-1.1c1-1,1.9-2.1,2.8-3.2c0.3-0.3,0.5-0.6,0.7-0.9
		c-0.4-0.1-0.9-0.5-1.2-0.4c-0.8,0.1-1.6,0.5-2.5,0.8c0.5-0.9,1.1-1.7,1.5-2.5c0.2-0.3,0.1-0.7,0.2-1c-0.4,0-1-0.1-1.2,0.1
		c-1.5,1.6-3,3.1-4.2,4.8C176.7,201.3,177.4,202.2,178.8,202.2z"/>
	<path d="M83.9,320.1c0,0.1,0,0.6,0.1,1c0.1,0.8,0.2,1.9,1.2,2c0.9,0.1,1-1,1.3-1.7c1-3.2,2-6.3,3-9.5c0.1-0.2,0-0.5-0.1-0.6
		c0-0.1-0.4-0.1-0.5,0c-0.9,0.7-1.9,1.3-2.6,2.2C84.7,315.3,83.9,317.4,83.9,320.1z"/>
	<path d="M61.5,81.6c0-0.4,0-0.9-0.2-1.1c-0.4-0.3-0.9-0.4-1.4-0.4c-1.8,0.1-3.7,0.2-5.5,0.4c0-0.1,0-0.1,0-0.2c-0.4,0-0.9,0-1.3,0
		c-0.4,0-0.9,0-1.3,0.1c-1.2,0.1-1.8,0.7-1.9,1.5c0,0.8,0.7,1.5,1.8,1.6c1.5,0.1,3.1,0.1,4.6-0.1c1.6-0.2,3.1-0.8,4.6-1.2
		C61.2,82.1,61.5,81.8,61.5,81.6z"/>
	<path d="M287.1,97.5c0.3,0,0.6-0.2,0.9-0.4c-0.2-0.3-0.2-0.7-0.5-0.8c-2.8-1.4-5.6-2.8-8.5-4.2c-0.5-0.3-1.1-0.4-1.8-0.7
		c-0.4,0.3-0.9,0.6-1.1,1.1c-0.3,0.7,0.1,1.3,0.8,1.6C280.1,95.7,283.3,97.5,287.1,97.5z"/>
	<path d="M292.9,318.2c0.1-1.6,0.2-3.2,0.3-4.7c-0.1-1.3-0.1-2.5-0.3-3.6c-0.3-1.4-0.7-2.8-1.1-4.1c-0.1-0.3-0.6-0.5-0.9-0.8
		c-0.1,0.4-0.4,0.7-0.4,1.1c0,0.7,0,1.4,0.1,2.1c0.2,3.6,1.1,7.1,1,10.7C292,318.7,292.5,318.5,292.9,318.2z"/>
	<path d="M316.6,270.9c-1.3-2-2.6-3.9-3.8-5.9c-0.4-0.5-0.9-1-1.5-0.5c-0.3,0.3-0.5,1.1-0.3,1.5c0.3,0.9,0.8,1.7,1.3,2.5
		c1.5,2.9,4.3,4.8,5.5,7.9c0,0,0.1,0,0.3,0C317.6,274.5,317.1,272.8,316.6,270.9C316.7,270.9,316.6,270.9,316.6,270.9z"/>
	<path d="M188.7,37.5c-0.3-0.8-0.9-0.7-1.6-0.5c-2.1,0.5-4.2,1-6.2,1.5c-0.3,0.1-0.7,0.1-0.9,0.3c-0.3,0.3-0.7,0.7-0.7,1
		c0,0.3,0.3,0.8,0.6,0.9c0.5,0.2,1.1,0.3,1.8,0.4c0.9-0.2,1.9-0.3,2.8-0.7c1.1-0.4,2.2-1,3.2-1.5C188.5,38.6,189,38.2,188.7,37.5z"
		/>
	<path d="M239.3,201.3c-0.2-1.6-1.3-2.5-2.8-2.8c-0.7-0.2-1.5-0.2-2.2-0.1c-1.1,0-1.8,0.6-1.8,1.5c0,0.8,0.6,1.4,1.7,1.4
		C236,201.2,237.6,202.3,239.3,201.3z"/>
	<path d="M141.6,233.7c-0.1,1,1.1,2,2.4,2.1c1.4,0.1,2.7-0.8,2.7-1.9c0-1.1-1.2-2-2.6-1.9C142.8,231.9,141.6,232.7,141.6,233.7z"/>
	<path d="M215.9,212.5c0-1.1-0.9-1.9-2.1-1.9c-1.2,0-2,0.6-2,1.6c0,1.1,1.2,2.4,2.3,2.4C215.1,214.5,215.9,213.6,215.9,212.5z"/>
	<path d="M121.1,222.3c0,1.2,0.8,2.2,1.8,2.2c1,0,1.6-0.8,1.6-2c0-1.3-0.8-2.3-1.9-2.4C122,220.1,121.1,221.3,121.1,222.3z"/>
	<path d="M133.3,229.3c1,0,1.6-0.7,1.6-1.7c0-1.5-0.7-2.4-1.9-2.4c-1,0-1.7,0.8-1.7,2C131.3,228.4,132.1,229.3,133.3,229.3z"/>
	<path d="M206.1,231.7c0-0.9-0.7-1.5-1.8-1.5c-1.1,0-2.1,0.8-2.1,1.8c0,0.9,0.9,1.6,2,1.6C205.4,233.6,206.2,232.8,206.1,231.7z"/>
	<path d="M132.3,220.6c-0.2-0.9-0.5-1.9-1-2.7c-0.4-0.6-1.5-0.5-1.7,0.2c-0.2,0.6-0.2,1.2-0.3,2c0.1,0.3,0.1,0.8,0.4,1
		c0.4,0.3,1.1,0.6,1.6,0.5C131.7,221.5,132.3,220.8,132.3,220.6z"/>
	<path d="M209.2,223.4c0,0.8,0.9,1.5,1.8,1.5c1,0,1.8-0.8,1.7-1.7c0-0.8-0.7-1.5-1.6-1.5C210.1,221.7,209.2,222.5,209.2,223.4z"/>
	<path d="M128.9,232.8c0.3,0,0.6,0,0.8-0.1c0.5-0.4,1.2-0.8,1.3-1.3c0.2-0.8-0.6-1.1-1.2-1.2c-0.5-0.1-1.1-0.1-1.6,0.1
		c-0.5,0.2-1.2,0.7-1.1,0.9c0.1,0.5,0.6,1,1,1.4C128.3,232.8,128.7,232.8,128.9,232.8z"/>
	<path d="M220.4,222.7c0-0.8-0.6-1.1-1.3-1.1c-0.7,0-1.4,0.3-1.4,1.1c0,0.8,0.6,1,1.3,1.1C219.8,223.8,220.4,223.6,220.4,222.7z"/>
	<path d="M128.8,208c0.4-0.1,1-0.7,1.1-1.1c0-0.4-0.6-0.8-1.2-1.4c-0.5,0.7-1,1-1.1,1.5C127.5,207.8,128.2,208.2,128.8,208z"/>
	<path d="M214.4,231.1c0.1,0.1,0.6-0.4,0.9-0.6c-0.3-0.3-0.5-0.7-0.9-1.1c-0.4,0.4-0.7,0.6-0.9,0.8
		C213.8,230.5,214.1,230.9,214.4,231.1z"/>
	<path d="M16.7,166.9c-0.8,0.3-1.5,0.5-2.2,0.8c0,0.1,0,0.2,0.1,0.2c0.6,0.2,1.2,0.3,1.8,0.5C16.5,167.9,16.6,167.5,16.7,166.9z"/>
	<path d="M127.7,227c-0.4,0.5-0.8,1-1.2,1.5C127.7,228.6,128,228.2,127.7,227z"/>
</g>
<path fill="none" stroke="#000000" stroke-width="5" stroke-miterlimit="10" d="M324.9,264.3c0,33.8-27.2,61.2-60.9,61.2H67.9
	C34.3,325.5,7,298.1,7,264.3V67.2C7,33.4,34.3,6.1,67.9,6.1h196.1c33.6,0,60.9,27.4,60.9,61.2V264.3z"/>
</svg>
